<?xml version="1.0" encoding="UTF-8" standalone="no"?>
<!-- Created with Inkscape (http://www.inkscape.org/) -->

<svg
   xmlns:dc="http://purl.org/dc/elements/1.1/"
   xmlns:cc="http://creativecommons.org/ns#"
   xmlns:rdf="http://www.w3.org/1999/02/22-rdf-syntax-ns#"
   xmlns:svg="http://www.w3.org/2000/svg"
   xmlns="http://www.w3.org/2000/svg"
   xmlns:xlink="http://www.w3.org/1999/xlink"
   xmlns:sodipodi="http://sodipodi.sourceforge.net/DTD/sodipodi-0.dtd"
   xmlns:inkscape="http://www.inkscape.org/namespaces/inkscape"
   width="346.85559"
   height="669.04095"
   id="svg2"
   version="1.1"
   inkscape:version="0.48.4 r9939"
   sodipodi:docname="logo.svg">
  <defs
     id="defs4">
    <inkscape:path-effect
       effect="spiro"
       id="path-effect3234"
       is_visible="true" />
    <inkscape:path-effect
       effect="spiro"
       id="path-effect3230"
       is_visible="true" />
    <inkscape:path-effect
       is_visible="true"
       id="path-effect3221"
       effect="spiro" />
    <inkscape:path-effect
       effect="spiro"
       id="path-effect3213"
       is_visible="true" />
    <inkscape:path-effect
       is_visible="true"
       id="path-effect3171"
       effect="spiro" />
    <inkscape:path-effect
       effect="spiro"
       id="path-effect3155"
       is_visible="true" />
    <inkscape:path-effect
       effect="spiro"
       id="path-effect3098"
       is_visible="true" />
    <inkscape:path-effect
       effect="spiro"
       id="path-effect3085"
       is_visible="true" />
    <inkscape:path-effect
       effect="spiro"
       id="path-effect3081"
       is_visible="true" />
  </defs>
  <sodipodi:namedview
     id="base"
     pagecolor="#ffffff"
     bordercolor="#666666"
     borderopacity="1.0"
     inkscape:pageopacity="0.0"
     inkscape:pageshadow="2"
     inkscape:zoom="1.2136776"
     inkscape:cx="173.4278"
     inkscape:cy="334.52048"
     inkscape:document-units="px"
     inkscape:current-layer="layer1"
     showgrid="false"
     inkscape:snap-bbox="true"
     inkscape:bbox-paths="true"
     inkscape:bbox-nodes="true"
     inkscape:snap-bbox-edge-midpoints="true"
     inkscape:snap-bbox-midpoints="true"
     showguides="true"
     inkscape:guide-bbox="true"
     inkscape:window-width="1680"
     inkscape:window-height="1011"
     inkscape:window-x="1680"
     inkscape:window-y="0"
     inkscape:window-maximized="1"
     inkscape:object-nodes="false"
     inkscape:snap-global="true"
     borderlayer="true"
     inkscape:showpageshadow="false"
     fit-margin-top="0"
     fit-margin-left="0"
     fit-margin-right="0"
     fit-margin-bottom="0">
    <sodipodi:guide
       orientation="0,1"
       position="327.867,66.663744"
       id="guide3157" />
    <sodipodi:guide
       orientation="0,1"
       position="124.28438,183.56227"
       id="guide3165" />
    <sodipodi:guide
       orientation="1,0"
       position="327.7894,52.211214"
       id="guide3173" />
    <sodipodi:guide
       orientation="0,1"
       position="226.38487,136.23919"
       id="guide3207" />
    <sodipodi:guide
       orientation="0,1"
       position="226.62134,19.340664"
       id="guide3209" />
    <sodipodi:guide
       orientation="1,0"
       position="226.11456,231.72051"
       id="guide3226" />
    <sodipodi:guide
       orientation="1,0"
       position="124.00992,183.56227"
       id="guide4013" />
  </sodipodi:namedview>
  <metadata
     id="metadata7">
    <rdf:RDF>
      <cc:Work
         rdf:about="">
        <dc:format>image/svg+xml</dc:format>
        <dc:type
           rdf:resource="http://purl.org/dc/dcmitype/StillImage" />
        <dc:title></dc:title>
      </cc:Work>
    </rdf:RDF>
  </metadata>
  <g
     inkscape:label="Layer 1"
     inkscape:groupmode="layer"
     id="layer1"
     transform="translate(4.4628906e-6,-1.9238282e-6)">
    <g
       id="g4258"
       transform="translate(307.57632,-130.59622)"
       inkscape:export-filename="logo.png"
       inkscape:export-xdpi="90"
       inkscape:export-ydpi="90">
      <rect
         y="130.59622"
         x="-307.57632"
         height="260"
         width="260"
         id="rect4245"
         style="fill:none;stroke:none" />
      <path
         inkscape:connector-curvature="0"
         id="path4015-1"
         d="m -177.23257,135.06499 c -10.68155,0 -19.34375,8.6622 -19.34375,19.34375 0,0.0938 -10e-4,0.18778 0,0.28125 l -70.25,33.125 c -3.37427,-2.86973 -7.72336,-4.59375 -12.5,-4.59375 -10.68155,0 -19.34375,8.66221 -19.34375,19.34376 0,7.82679 4.65643,14.54963 11.34375,17.59375 l 0,81.71875 c -6.68245,3.04608 -11.34375,9.7705 -11.34375,17.59375 0,10.68155 8.6622,19.34375 19.34375,19.34375 4.82422,0 9.20601,-1.7976 12.59375,-4.71875 l 70.65625,32.59375 c -1.5e-4,0.0312 0,0.0625 0,0.0937 0,10.68155 8.6622,19.34375 19.34375,19.34375 10.68155,0 19.34375,-8.6622 19.34375,-19.34375 0,-0.0729 8.1e-4,-0.14599 0,-0.21875 l 69.062495,-32.375 c 3.371866,2.86078 7.731666,4.625 12.5,4.625 10.681551,0 19.34375,-8.6622 19.34375,-19.34375 0,-7.82325 -4.661304,-14.54767 -11.34375,-17.59375 l 0,-81.71875 c 6.687322,-3.04412 11.34375,-9.76696 11.34375,-17.59375 0,-10.68155 -8.662199,-19.34376 -19.34375,-19.34376 -4.744923,0 -9.103746,1.69562 -12.46875,4.53125 l -69.593745,-33.0312 c 0.002,-0.10382 0,-0.20829 0,-0.3125 0,-10.68155 -8.6622,-19.34375 -19.34375,-19.34375 z m -12.53125,34.09375 c 3.37427,2.86973 7.75461,4.59375 12.53125,4.59375 4.75247,0 9.10152,-1.71877 12.46875,-4.5625 l 69.593742,33.06251 c -0.002,0.10382 0,0.20829 0,0.3125 0,0.0625 -5.9e-4,0.12511 0,0.1875 L -162.82632,234.44 a 8.0036765,8.0036765 0 0 0 -1.46875,0.875 c -3.39644,-2.95561 -7.80031,-4.78125 -12.65625,-4.78125 -4.88766,0 -9.3451,1.85353 -12.75,4.84375 a 8.0046678,8.0046678 0 0 0 -1.46875,-0.875 l -68.8125,-31.8125 c 2.6e-4,-0.0416 0,-0.0833 0,-0.125 0,-0.0834 0.001,-0.16688 0,-0.25 l 70.21875,-33.15626 z m -76.96875,48.06251 68.84375,31.8125 a 8.0046678,8.0046678 0 0 0 1.59375,0.5625 c -10e-4,0.0935 0,0.18746 0,0.28125 0,7.90151 4.74105,14.71707 11.53125,17.71875 a 8.0008,8.0008 0 0 0 -0.15625,1.65625 l 0.15625,79.96875 c -1.67681,0.7677 -3.21576,1.74579 -4.59375,2.9375 l -70.625,-32.59375 c 1.5e-4,-0.0312 0,-0.0625 0,-0.0937 0,-7.82325 -4.6613,-14.54767 -11.34375,-17.59375 l 0,-81.71875 c 1.68274,-0.76599 3.21072,-1.74496 4.59375,-2.9375 z m 178.343745,0.0312 c 1.370188,1.17324 2.900413,2.14966 4.5625,2.90625 l 0,81.71875 c -6.682443,3.04608 -11.343753,9.7705 -11.343753,17.59375 0,0.0729 -8e-4,0.14599 0,0.21875 l -69.031242,32.375 c -1.36538,-1.16162 -2.90952,-2.12548 -4.5625,-2.875 l -0.15625,-79.96875 a 8.0008,8.0008 0 0 0 -0.15625,-1.65625 c 6.75588,-3.01603 11.46875,-9.8109 11.46875,-17.6875 0,-0.13547 0.003,-0.27144 0,-0.40625 a 8.0036765,8.0036765 0 0 0 1.5625,-0.53125 l 67.656245,-31.68745 z"
         style="font-size:medium;font-style:normal;font-variant:normal;font-weight:normal;font-stretch:normal;text-indent:0;text-align:start;text-decoration:none;line-height:normal;letter-spacing:normal;word-spacing:normal;text-transform:none;direction:ltr;block-progression:tb;writing-mode:lr-tb;text-anchor:start;baseline-shift:baseline;color:#000000;fill:#0e76bc;fill-opacity:1;stroke:#ffffff;stroke-width:1;stroke-opacity:1;marker:none;visibility:visible;display:inline;overflow:visible;enable-background:accumulate;font-family:Sans;-inkscape-font-specification:Sans" />
    </g>
    <g
       id="g4262">
      <path
         transform="matrix(0.95652174,0,0,0.95652174,126.31798,106.41422)"
         d="m 124.83517,445.76877 c 0,11.16707 -9.05271,20.21978 -20.21978,20.21978 -11.167079,0 -20.219783,-9.05271 -20.219783,-20.21978 0,-11.16708 9.052704,-20.21978 20.219783,-20.21978 11.16707,0 20.21978,9.0527 20.21978,20.21978 z"
         sodipodi:ry="20.21978"
         sodipodi:rx="20.21978"
         sodipodi:cy="445.76877"
         sodipodi:cx="104.61539"
         id="path2991-4"
         style="fill:#000000;fill-opacity:1;stroke:none"
         sodipodi:type="arc" />
      <use
         height="1052.3622"
         width="744.09448"
         transform="translate(0.23647304,116.89853)"
         id="use3108"
         xlink:href="#path2991-4"
         y="0"
         x="0" />
      <use
         height="1052.3622"
         width="744.09448"
         transform="translate(-0.27030696,-95.481323)"
         id="use3116"
         xlink:href="#path2991-4"
         y="0"
         x="0" />
      <use
         height="1052.3622"
         width="744.09448"
         transform="translate(-102.37495,-47.323083)"
         id="use3167"
         xlink:href="#path2991-4"
         y="0"
         x="0" />
      <use
         height="1052.3622"
         width="744.09448"
         transform="translate(101.13007,69.575447)"
         id="use3175"
         xlink:href="#path2991-4"
         y="0"
         x="0" />
      <use
         height="1052.3622"
         width="744.09448"
         transform="translate(101.13007,-47.323083)"
         id="use3189"
         xlink:href="#path2991-4"
         y="0"
         x="0" />
      <use
         height="1052.3622"
         width="744.09448"
         transform="translate(-102.37495,69.575447)"
         id="use4011"
         xlink:href="#path2991-4"
         y="0"
         x="0" />
      <g
         id="g4047">
        <path
           style="fill:none;stroke:#000000;stroke-width:16;stroke-linecap:round;stroke-linejoin:round;stroke-opacity:1"
           d="M 124.00992,485.47865 226.11457,437.32041"
           id="path4015"
           inkscape:connector-type="polyline"
           inkscape:connector-curvature="0"
           inkscape:connection-start="#use3167"
           inkscape:connection-start-point="d4"
           inkscape:connection-end="#use3116"
           inkscape:connection-end-point="d4" />
        <path
           style="fill:none;stroke:#000000;stroke-width:16;stroke-linecap:round;stroke-linejoin:round;stroke-opacity:1"
           d="M 327.51494,485.47865 226.11457,437.32041"
           id="path4017"
           inkscape:connector-type="polyline"
           inkscape:connector-curvature="0"
           inkscape:connection-end-point="d4"
           inkscape:connection-end="#use3116"
           inkscape:connection-start-point="d4"
           inkscape:connection-start="#use3189" />
        <path
           style="fill:none;stroke:#000000;stroke-width:16;stroke-linecap:round;stroke-linejoin:round;stroke-opacity:1"
           d="m 124.00992,485.47865 0,116.89853"
           id="path4019"
           inkscape:connector-type="polyline"
           inkscape:connector-curvature="0"
           inkscape:connection-start="#use3167"
           inkscape:connection-start-point="d4"
           inkscape:connection-end="#use4011"
           inkscape:connection-end-point="d4" />
        <path
           style="fill:none;stroke:#000000;stroke-width:16;stroke-linecap:round;stroke-linejoin:round;stroke-opacity:1"
           d="m 124.00992,602.37718 102.61143,47.32309"
           id="path4021"
           inkscape:connector-type="polyline"
           inkscape:connector-curvature="0"
           inkscape:connection-start="#use4011"
           inkscape:connection-start-point="d4"
           inkscape:connection-end="#use3108"
           inkscape:connection-end-point="d4" />
        <path
           style="fill:none;stroke:#000000;stroke-width:16;stroke-linecap:round;stroke-linejoin:round;stroke-opacity:1"
           d="M 226.62135,649.70027 327.51494,602.37718"
           id="path4023"
           inkscape:connector-type="polyline"
           inkscape:connector-curvature="0"
           inkscape:connection-start="#use3108"
           inkscape:connection-start-point="d4"
           inkscape:connection-end="#use3175"
           inkscape:connection-end-point="d4" />
        <path
           style="fill:none;stroke:#000000;stroke-width:16;stroke-linecap:round;stroke-linejoin:round;stroke-opacity:1"
           d="m 327.51494,602.37718 0,-116.89853"
           id="path4025"
           inkscape:connector-type="polyline"
           inkscape:connector-curvature="0"
           inkscape:connection-start="#use3175"
           inkscape:connection-start-point="d4"
           inkscape:connection-end="#use3189"
           inkscape:connection-end-point="d4" />
        <path
           style="fill:none;stroke:#000000;stroke-width:16;stroke-linecap:round;stroke-linejoin:round;stroke-opacity:1"
           d="m 327.51494,485.47865 -83.6083,39.12391"
           id="path4027"
           inkscape:connector-type="polyline"
           inkscape:connector-curvature="0"
           inkscape:connection-start="#use3189"
           inkscape:connection-start-point="d4"
           inkscape:connection-end-point="d4"
           inkscape:connection-end="#path2991-4" />
        <path
           style="fill:none;stroke:#000000;stroke-width:16;stroke-linecap:round;stroke-linejoin:round;stroke-opacity:1"
           d="m 124.00992,485.47865 84.81497,39.20594"
           id="path4033"
           inkscape:connector-type="polyline"
           inkscape:connector-curvature="0"
           inkscape:connection-start="#use3167"
           inkscape:connection-start-point="d4"
           inkscape:connection-end="#path2991-4"
           inkscape:connection-end-point="d4" />
        <path
           style="fill:none;stroke:#000000;stroke-width:16;stroke-linecap:round;stroke-linejoin:round;stroke-opacity:1"
           d="M 226.62135,649.70027 226.424,552.14236"
           id="path4035"
           inkscape:connector-type="polyline"
           inkscape:connector-curvature="0"
           inkscape:connection-start="#use3108"
           inkscape:connection-start-point="d4"
           inkscape:connection-end="#path2991-4"
           inkscape:connection-end-point="d4" />
      </g>
    </g>
  </g>
</svg>
